# xmcd CD database file
#
# Track frame offsets:
#	183
#	19960
#	36678
#	53163
#	74913
#	93665
#	108995
#	126050
#	145948
#	163405
#
# Disc length: 2466 seconds
#
# Revision: 0
# Processed by: cddbd v1.4PL0 Copyright (c) Steve Scherf et al.
# Submitted via: CDex 1.50Beta7
#
DISCID=9e09a00a
DTITLE=鄺美雲 - 留下陪我
DYEAR=1987
DGENRE=Blues
TTITLE0=留下陪我
TTITLE1=相逢在半生
TTITLE2=幽幽夢裡
TTITLE3=迅速的戀愛
TTITLE4=仍然心在想你
TTITLE5=點俾某君聽
TTITLE6=遺棄
TTITLE7=引誘
TTITLE8=姐姐哥哥
TTITLE9=迷離的吻
EXTD=YEAR: 1987
EXTT0=
EXTT1=
EXTT2=
EXTT3=
EXTT4=
EXTT5=
EXTT6=
EXTT7=
EXTT8=
EXTT9=
PLAYORDER=
